<svg xmlns="http://www.w3.org/2000/svg" version="1.1" xmlns:xlink="http://www.w3.org/1999/xlink" xmlns:svgjs="http://svgjs.com/svgjs" width="1440" height="560" preserveAspectRatio="none" viewBox="0 0 1440 560"><g mask="url(&quot;#SvgjsMask1013&quot;)" fill="none"><rect width="1440" height="560" x="0" y="0" fill="rgba(51, 51, 51, 1)"></rect><path d="M1464 560L0 560 L0 321.06Q47.7 296.76, 72 344.46Q138.56 291.02, 192 357.59Q196.44 290.03, 264 294.48Q332.49 242.97, 384 311.46Q438.93 294.39, 456 349.32Q482.81 256.13, 576 282.93Q645.71 232.64, 696 302.35Q768.2 254.56, 816 326.76Q868.35 307.11, 888 359.46Q888.77 288.23, 960 288.99Q1040.6 249.59, 1080 330.18Q1148.47 278.65, 1200 347.12Q1241.56 316.68, 1272 358.24Q1286.55 300.78, 1344 315.33Q1397.42 248.75, 1464 302.18z" fill="#182f5d"></path><path d="M1536 560L0 560 L0 418.39Q69.81 368.2, 120 438.02Q128.26 374.28, 192 382.54Q214.42 332.96, 264 355.38Q338.25 357.63, 336 431.89Q377.38 401.27, 408 442.66Q411.88 374.55, 480 378.43Q533.65 312.09, 600 365.74Q687.43 333.17, 720 420.6Q750.61 379.21, 792 409.81Q803.23 349.04, 864 360.27Q934.78 311.05, 984 381.83Q1064.56 342.39, 1104 422.95Q1151.74 350.69, 1224 398.44Q1276.03 330.47, 1344 382.49Q1372.4 338.89, 1416 367.29Q1503.47 334.76, 1536 422.24z" fill="#25467d"></path><path d="M1536 560L0 560 L0 486.16Q46.96 413.13, 120 460.09Q161.36 381.45, 240 422.81Q283.06 393.88, 312 436.94Q383.93 388.87, 432 460.8Q489.47 446.27, 504 503.75Q530.74 410.49, 624 437.22Q653.11 394.33, 696 423.43Q749.6 405.03, 768 458.63Q827.87 446.5, 840 506.37Q860.37 406.74, 960 427.11Q1036.53 383.64, 1080 460.18Q1148.09 408.26, 1200 476.35Q1241.37 445.72, 1272 487.08Q1313.9 456.99, 1344 498.89Q1345.32 428.21, 1416 429.53Q1472.79 366.32, 1536 423.11z" fill="#356cb1"></path><path d="M1560 560L0 560 L0 573.87Q19.31 473.18, 120 492.49Q192.53 445.02, 240 517.55Q301.46 507, 312 568.46Q362.74 499.2, 432 549.94Q486.64 532.58, 504 587.22Q507.16 518.38, 576 521.54Q625.36 450.9, 696 500.26Q753.89 486.15, 768 544.04Q790.66 494.7, 840 517.36Q866.54 471.9, 912 498.44Q987.54 453.98, 1032 529.51Q1086.09 511.6, 1104 565.68Q1148.67 538.35, 1176 583.02Q1178.84 513.86, 1248 516.7Q1278.64 475.35, 1320 505.99Q1399.81 465.8, 1440 545.6Q1513.58 499.18, 1560 572.76z" fill="rgba(51, 51, 51, 1)"></path></g><defs><mask id="SvgjsMask1013"><rect width="1440" height="560" fill="#ffffff"></rect></mask></defs></svg>