<svg xmlns="http://www.w3.org/2000/svg" version="1.1" xmlns:xlink="http://www.w3.org/1999/xlink" xmlns:svgjs="http://svgjs.com/svgjs" width="1440" height="560" preserveAspectRatio="none" viewBox="0 0 1440 560"><g mask="url(&quot;#SvgjsMask1016&quot;)" fill="none"><rect width="1440" height="560" x="0" y="0" fill="rgba(241, 245, 248, 1)"></rect><path d="M1560 560L0 560 L0 336.82Q56.31 273.13, 120 329.45Q166.74 256.19, 240 302.92Q320.25 263.17, 360 343.41Q406.29 317.7, 432 363.99Q433.02 293.01, 504 294.04Q545.06 263.1, 576 304.16Q667.75 275.91, 696 367.66Q741.42 293.08, 816 338.49Q870 272.5, 936 326.5Q1013.18 283.69, 1056 360.87Q1123.67 308.54, 1176 376.21Q1190.04 318.25, 1248 332.28Q1264.84 277.12, 1320 293.96Q1388.38 242.33, 1440 310.71Q1531.75 282.46, 1560 374.21z" fill="#182f5d"></path><path d="M1488 560L0 560 L0 438.6Q22.16 340.76, 120 362.92Q191.05 313.97, 240 385.01Q309.14 334.15, 360 403.29Q438.93 362.22, 480 441.14Q502.4 343.54, 600 365.94Q629.79 323.73, 672 353.52Q724.89 334.41, 744 387.31Q811.55 334.86, 864 402.41Q929.16 347.58, 984 412.74Q1033.46 390.2, 1056 439.66Q1083.73 347.39, 1176 375.12Q1257.19 336.31, 1296 417.51Q1303.32 352.82, 1368 360.14Q1435.9 308.04, 1488 375.94z" fill="#25467d"></path><path d="M1536 560L0 560 L0 488.96Q38.25 455.21, 72 493.46Q143.23 444.69, 192 515.93Q198.28 450.21, 264 456.49Q330.15 402.64, 384 468.8Q425.49 438.29, 456 479.78Q478.87 430.64, 528 453.51Q583.93 437.44, 600 493.38Q643.51 464.89, 672 508.41Q695.37 459.78, 744 483.15Q759.06 426.21, 816 441.27Q859 412.26, 888 455.26Q910.91 406.17, 960 429.09Q1003.23 400.31, 1032 443.54Q1095.13 434.67, 1104 497.79Q1157.88 431.67, 1224 485.55Q1258.21 399.76, 1344 433.97Q1374.24 392.21, 1416 422.44Q1501.44 387.88, 1536 473.33z" fill="#356cb1"></path><path d="M1488 560L0 560 L0 524.39Q66.6 518.99, 72 585.58Q86.6 480.18, 192 494.78Q233.92 464.69, 264 506.61Q342.95 465.56, 384 544.51Q438.91 527.42, 456 582.34Q480.37 486.71, 576 511.07Q651.13 466.2, 696 541.33Q724.07 497.4, 768 525.47Q796.83 482.3, 840 511.12Q889.45 440.57, 960 490.03Q1064.13 474.16, 1080 578.29Q1104.05 530.34, 1152 554.38Q1184.09 466.47, 1272 498.55Q1320.8 475.35, 1344 524.14Q1372.93 481.07, 1416 510Q1442.98 464.98, 1488 491.96z" fill="rgba(241, 245, 248, 1)"></path></g><defs><mask id="SvgjsMask1016"><rect width="1440" height="560" fill="#ffffff"></rect></mask></defs></svg>